<svg width="21" height="17" viewBox="0 0 21 17" fill="none" xmlns="http://www.w3.org/2000/svg">
<g clip-path="url(#clip0_8_1340)">
<path d="M2.72468 6.37146C3.09397 5.22933 3.70232 4.18093 4.50502 3.29244C4.64076 3.14219 4.85371 3.08864 5.04438 3.15682L6.96266 3.84272C7.48274 4.02857 8.055 3.75763 8.24085 3.23755C8.25913 3.18642 8.27321 3.13387 8.28294 3.08053L8.6484 1.07453C8.68473 0.875073 8.83791 0.717305 9.0362 0.675097C9.61639 0.551602 10.2113 0.4888 10.8139 0.4888C11.4163 0.4888 12.0108 0.551525 12.5906 0.674872C12.7889 0.717041 12.942 0.87471 12.9785 1.07409L13.3449 3.08045C13.444 3.62377 13.9648 3.9839 14.5081 3.88481C14.5616 3.87507 14.6141 3.86099 14.6651 3.84275L16.5835 3.15682C16.7742 3.08864 16.9871 3.14219 17.1229 3.29244C17.9256 4.18093 18.5339 5.22933 18.9032 6.37146C18.9655 6.56414 18.9054 6.77538 18.7511 6.90644L17.1962 8.22653C16.7752 8.584 16.7237 9.21507 17.0812 9.63606C17.1164 9.67745 17.1548 9.71592 17.1962 9.75105L18.7511 11.0712C18.9054 11.2022 18.9655 11.4135 18.9032 11.6061C18.5339 12.7483 17.9256 13.7967 17.1229 14.6852C16.9871 14.8354 16.7742 14.889 16.5835 14.8208L14.6652 14.1349C14.1452 13.949 13.5729 14.22 13.387 14.74C13.3688 14.7912 13.3547 14.8437 13.3449 14.8973L12.9785 16.9035C12.942 17.1029 12.7889 17.2606 12.5906 17.3027C12.0108 17.4261 11.4163 17.4888 10.8139 17.4888C10.2113 17.4888 9.61639 17.426 9.0362 17.3025C8.83791 17.2603 8.68473 17.1025 8.6484 16.9031L8.28295 14.8972C8.18387 14.3538 7.66309 13.9937 7.11977 14.0928C7.06634 14.1025 7.0138 14.1166 6.96275 14.1349L5.04438 14.8208C4.85371 14.889 4.64076 14.8354 4.50502 14.6852C3.70232 13.7967 3.09397 12.7483 2.72468 11.6061C2.66238 11.4135 2.72245 11.2022 2.87682 11.0712L4.43167 9.75107C4.85266 9.3936 4.90415 8.76253 4.54668 8.34154C4.51153 8.30015 4.47306 8.26168 4.43169 8.22655L2.87682 6.90644C2.72245 6.77538 2.66238 6.56414 2.72468 6.37146ZM8.81395 8.9888C8.81395 10.0934 9.70938 10.9888 10.8139 10.9888C11.9185 10.9888 12.8139 10.0934 12.8139 8.9888C12.8139 7.88423 11.9185 6.9888 10.8139 6.9888C9.70938 6.9888 8.81395 7.88423 8.81395 8.9888Z" fill="white"/>
</g>
<defs>
<clipPath id="clip0_8_1340">
<rect width="19.7674" height="15.6217" fill="white" transform="translate(0.81395 0.9888)"/>
</clipPath>
</defs>
</svg>
