<svg width="17" height="17" viewBox="0 0 17 17" fill="none" xmlns="http://www.w3.org/2000/svg">
<path d="M6.81395 3.45236C6.81395 3.17622 7.03781 2.95236 7.31395 2.95236H16.3139C16.5901 2.95236 16.8139 3.17622 16.8139 3.45236C16.8139 3.7285 16.5901 3.95236 16.3139 3.95236H7.31395C7.03781 3.95236 6.81395 3.7285 6.81395 3.45236ZM6.81395 9.45236C6.81395 9.17622 7.03781 8.95236 7.31395 8.95236H16.3139C16.5901 8.95236 16.8139 9.17622 16.8139 9.45236C16.8139 9.7285 16.5901 9.95236 16.3139 9.95236H7.31395C7.03781 9.95236 6.81395 9.7285 6.81395 9.45236ZM6.81395 15.4524C6.81395 15.1762 7.03781 14.9524 7.31395 14.9524H16.3139C16.5901 14.9524 16.8139 15.1762 16.8139 15.4524C16.8139 15.7285 16.5901 15.9524 16.3139 15.9524H7.31395C7.03781 15.9524 6.81395 15.7285 6.81395 15.4524ZM0.81395 14.4524C0.81395 13.6239 1.48552 12.9524 2.31395 12.9524H3.31395C4.14238 12.9524 4.81395 13.6239 4.81395 14.4524V15.4524C4.81395 16.2808 4.14238 16.9524 3.31395 16.9524H2.31395C1.48552 16.9524 0.81395 16.2808 0.81395 15.4524V14.4524ZM0.81395 8.45236C0.81395 7.62393 1.48552 6.95236 2.31395 6.95236H3.31395C4.14238 6.95236 4.81395 7.62393 4.81395 8.45236V9.45236C4.81395 10.2808 4.14238 10.9524 3.31395 10.9524H2.31395C1.48552 10.9524 0.81395 10.2808 0.81395 9.45236V8.45236ZM0.81395 2.45236C0.81395 1.62393 1.48552 0.952362 2.31395 0.952362H3.31395C4.14238 0.952362 4.81395 1.62393 4.81395 2.45236V3.45236C4.81395 4.28079 4.14238 4.95236 3.31395 4.95236H2.31395C1.48552 4.95236 0.81395 4.28079 0.81395 3.45236V2.45236Z" fill="white"/>
</svg>
