<svg width="21" height="17" viewBox="0 0 21 17" fill="none" xmlns="http://www.w3.org/2000/svg">
<g clip-path="url(#clip0_8_1344)">
<path d="M15.8139 9.41798C15.8139 9.0537 15.9113 8.71216 16.0815 8.41798H11.3139C10.4855 8.41798 9.81395 7.74641 9.81395 6.91798V0.434387C5.90493 0.69168 2.81395 3.94386 2.81395 7.91798C2.81395 11.8921 5.90493 15.1443 9.81395 15.4016V13.418C9.81395 12.3134 10.7094 11.418 11.8139 11.418C12.1782 11.418 12.5198 11.5154 12.8139 11.6855V11.418C12.8139 10.3134 13.7094 9.41798 14.8139 9.41798C15.1782 9.41798 15.5198 9.51537 15.8139 9.68553V9.41798ZM10.8139 0.434387V6.91798C10.8139 7.19413 11.0378 7.41798 11.3139 7.41798H17.7975C17.5511 3.67423 14.5577 0.680803 10.8139 0.434387ZM16.8139 9.41779C16.8139 8.8655 17.2616 8.41779 17.8139 8.41779C18.3662 8.41779 18.8139 8.8655 18.8139 9.41779V16.4178C18.8139 16.9701 18.3662 17.4178 17.8139 17.4178C17.2616 17.4178 16.8139 16.9701 16.8139 16.4178V9.41779ZM10.8139 13.4178C10.8139 12.8655 11.2617 12.4178 11.8139 12.4178C12.3662 12.4178 12.8139 12.8655 12.8139 13.4178V16.4178C12.8139 16.9701 12.3662 17.4178 11.8139 17.4178C11.2617 17.4178 10.8139 16.9701 10.8139 16.4178V13.4178ZM13.8139 11.4178C13.8139 10.8655 14.2617 10.4178 14.8139 10.4178C15.3662 10.4178 15.8139 10.8655 15.8139 11.4178V16.4178C15.8139 16.9701 15.3662 17.4178 14.8139 17.4178C14.2617 17.4178 13.8139 16.9701 13.8139 16.4178V11.4178Z" fill="white"/>
</g>
<defs>
<clipPath id="clip0_8_1344">
<rect width="19.7674" height="15.6217" fill="white" transform="translate(0.81395 0.417786)"/>
</clipPath>
</defs>
</svg>
