<svg width="21" height="17" viewBox="0 0 21 17" fill="none" xmlns="http://www.w3.org/2000/svg">
<g clip-path="url(#clip0_8_1337)">
<path d="M11.0913 0.689138C10.9234 0.577172 10.7045 0.577172 10.5366 0.689138C8.59841 1.98127 6.50228 2.78747 4.24324 3.11019C3.99691 3.14538 3.81395 3.35634 3.81395 3.60516V8.10516C3.81395 11.9965 6.12094 14.8359 10.6345 16.5718C10.75 16.6163 10.8779 16.6163 10.9934 16.5718C15.507 14.8359 17.8139 11.9965 17.8139 8.10516V3.60516C17.8139 3.35634 17.631 3.14538 17.3847 3.11019C15.1256 2.78747 13.0295 1.98127 11.0913 0.689138ZM12.3139 7.60516C12.3139 8.25827 11.8965 8.81389 11.3139 9.01981V11.1052C11.3139 11.3813 11.0901 11.6052 10.8139 11.6052C10.5378 11.6052 10.3139 11.3813 10.3139 11.1052V9.01981C9.73135 8.81389 9.31395 8.25827 9.31395 7.60516C9.31395 6.77674 9.98552 6.10516 10.8139 6.10516C11.6424 6.10516 12.3139 6.77674 12.3139 7.60516Z" fill="white"/>
</g>
<defs>
<clipPath id="clip0_8_1337">
<rect width="19.7674" height="15.6217" fill="white" transform="translate(0.81395 0.605164)"/>
</clipPath>
</defs>
</svg>
