<svg width="21" height="18" viewBox="0 0 21 18" fill="none" xmlns="http://www.w3.org/2000/svg">
<path d="M10.5943 0.288396C10.3014 -0.00449772 9.82651 -0.00449772 9.53362 0.288396C9.24073 0.581289 9.24073 1.05616 9.53362 1.34906L10.7533 2.56873H10.3139C6.17181 2.56873 2.81395 5.92659 2.81395 10.0687C2.81395 14.2109 6.17181 17.5687 10.3139 17.5687C14.4561 17.5687 17.8139 14.2109 17.8139 10.0687C17.8139 9.65451 17.4782 9.31873 17.0639 9.31873C16.6497 9.31873 16.3139 9.65451 16.3139 10.0687C16.3139 13.3824 13.6277 16.0687 10.3139 16.0687C7.00024 16.0687 4.31395 13.3824 4.31395 10.0687C4.31395 6.77536 6.96736 4.10174 10.253 4.06903L9.53362 4.7884C9.24073 5.08129 9.24073 5.55616 9.53362 5.84906C9.82651 6.14195 10.3014 6.14195 10.5943 5.84906L12.8443 3.59906C13.1372 3.30616 13.1372 2.83129 12.8443 2.5384L10.5943 0.288396ZM14.3341 6.52836C14.6325 6.8156 14.6416 7.29039 14.3543 7.58883L10.5043 11.5888C10.363 11.7357 10.1679 11.8187 9.96397 11.8187C9.76008 11.8187 9.56499 11.7357 9.4236 11.5888L7.77358 9.87444C7.48634 9.576 7.49542 9.10121 7.79386 8.81397C8.0923 8.52674 8.56709 8.53582 8.85433 8.83426L9.96398 9.98719L13.2736 6.54863C13.5608 6.25019 14.0356 6.24112 14.3341 6.52836Z" fill="white"/>
</svg>
