<svg width="21" height="17" viewBox="0 0 21 17" fill="none" xmlns="http://www.w3.org/2000/svg">
<path d="M4.31395 2.80145C3.48552 2.80145 2.81395 3.47303 2.81395 4.30145V13.3015C2.81395 14.1299 3.48552 14.8015 4.31395 14.8015H17.3139C18.1424 14.8015 18.8139 14.1299 18.8139 13.3015V4.30145C18.8139 3.47303 18.1424 2.80145 17.3139 2.80145H4.31395ZM7.31395 8.80145C6.48552 8.80145 5.81395 8.12988 5.81395 7.30145C5.81395 6.47303 6.48552 5.80145 7.31395 5.80145C8.14238 5.80145 8.81395 6.47303 8.81395 7.30145C8.81395 8.12988 8.14238 8.80145 7.31395 8.80145ZM5.76274 9.55145H8.86516C9.38916 9.55145 9.81395 9.97624 9.81395 10.5002C9.81395 11.3475 9.23733 12.086 8.41539 12.2915L8.35638 12.3062C7.67196 12.4773 6.95594 12.4773 6.27151 12.3062L6.21251 12.2915C5.39056 12.086 4.81395 11.3475 4.81395 10.5002C4.81395 9.97624 5.23874 9.55145 5.76274 9.55145ZM11.8139 7.30145C11.8139 7.02531 12.0378 6.80145 12.3139 6.80145H15.3139C15.5901 6.80145 15.8139 7.02531 15.8139 7.30145C15.8139 7.5776 15.5901 7.80145 15.3139 7.80145H12.3139C12.0378 7.80145 11.8139 7.5776 11.8139 7.30145ZM12.3139 9.80145H15.3139C15.5901 9.80145 15.8139 10.0253 15.8139 10.3015C15.8139 10.5776 15.5901 10.8015 15.3139 10.8015H12.3139C12.0378 10.8015 11.8139 10.5776 11.8139 10.3015C11.8139 10.0253 12.0378 9.80145 12.3139 9.80145Z" fill="white"/>
</svg>
